<svg width="200" height="200" fill="#ffffff" xmlns="http://www.w3.org/2000/svg" xmlns:xlink="http://www.w3.org/1999/xlink" version="1.1" x="0px" y="0px" viewBox="0 0 100 100" enable-background="new 0 0 100 100" xml:space="preserve"><g><path d="M44.532,85.771H4.989c-1.927,0-3.489,1.562-3.489,3.49c0,1.926,1.562,3.488,3.489,3.488h39.543   c1.927,0,3.489-1.563,3.489-3.488C48.021,87.333,46.459,85.771,44.532,85.771z"/><path d="M95.041,85.771H55.498c-1.928,0-3.489,1.562-3.489,3.49c0,1.926,1.562,3.488,3.489,3.488h39.543   c1.927,0,3.488-1.563,3.488-3.488C98.529,87.333,96.968,85.771,95.041,85.771z"/><path d="M4.407,27.29c2.055,6.31,4.11,12.618,6.165,18.929c0.947,2.907,1.682,6.161,5.295,6.733   c3.371,0.535,6.742,1.068,10.113,1.604c0.486,0.077,1.344,0.206,2.294,0.347v27.103h39.433V62.229   c1.129,0.167,2.279,0.335,3.057,0.502c0.335,0.074,3.585,0.536,3.627,0.823c0.438,2.965,0.873,5.933,1.311,8.897   c0.443,3.001,0.885,6,1.326,8.999h10.75c-0.045-0.319-0.131-0.879-0.138-0.929c-0.39-2.644-0.78-5.288-1.169-7.933   c-0.701-4.758-1.402-9.516-2.104-14.273c-0.633-4.298-4.954-4.581-8.336-5.24c-3.844-0.749-7.687-1.498-11.529-2.247   c-5.742-1.118-11.632-2.277-17.445-3.357c-5.196-0.962-10.528-1.879-15.845-2.765c-3.304-0.553-6.609-1.104-9.914-1.655   c-0.645-0.106-0.597-0.069-0.801-0.697c-0.453-1.389-0.906-2.779-1.358-4.168c-1.511-4.639-3.022-9.279-4.533-13.918   c-0.048-0.145-0.102-0.198-0.162-0.222c-0.805-1.873-2.666-3.188-4.833-3.188c-2.905,0-5.262,2.355-5.262,5.262   c0,0.394,0.051,0.774,0.133,1.144C4.457,27.272,4.432,27.281,4.407,27.29z"/><path d="M38.943,19.895v20.354c3.003,2.55,6.885,4.095,11.132,4.095c4.229,0,8.097-1.53,11.095-4.059V19.857   C58.172,17.33,54.305,15.8,50.075,15.8C45.828,15.8,41.946,17.345,38.943,19.895z"/><path d="M36.185,37.816V23.315h0.039c0-6.596,6.222-11.961,13.869-11.961c7.44,0,13.516,5.086,13.837,11.438v15.024   c4.442,0,8.044-3.603,8.044-8.045c0-3.066-1.716-5.729-4.238-7.087c-0.376-8.403-8.134-15.141-17.643-15.141   c-9.497,0-17.248,6.72-17.642,15.107c-2.561,1.346-4.31,4.027-4.31,7.12C28.14,34.215,31.742,37.816,36.185,37.816z"/></g></svg>